<?xml version="1.0" encoding="UTF-8" standalone="no"?>
<!DOCTYPE svg PUBLIC "-//W3C//DTD SVG 1.1//EN"
 "http://www.w3.org/Graphics/SVG/1.1/DTD/svg11.dtd">
<!-- Generated by graphviz version 2.48.0 (20210717.2242)
 -->
<!-- Title: pipeline_dag_20220112_163933 Pages: 1 -->
<svg width="227pt" height="582pt"
 viewBox="0.00 0.00 226.75 581.80" xmlns="http://www.w3.org/2000/svg" xmlns:xlink="http://www.w3.org/1999/xlink">
<g id="graph0" class="graph" transform="scale(1 1) rotate(0) translate(4 577.8)">
<title>pipeline_dag_20220112_163933</title>
<polygon fill="white" stroke="transparent" points="-4,4 -4,-577.8 222.75,-577.8 222.75,4 -4,4"/>
<!-- p0 -->
<g id="node1" class="node">
<title>p0</title>
<ellipse fill="black" stroke="black" cx="163.6" cy="-555.2" rx="3.6" ry="3.6"/>
<text text-anchor="middle" x="80" y="-562.6" font-family="Times,serif" font-size="14.00">Channel.fromFilePairs</text>
</g>
<!-- p1 -->
<g id="node2" class="node">
<title>p1</title>
<ellipse fill="none" stroke="black" cx="163.6" cy="-482.6" rx="34.39" ry="18"/>
<text text-anchor="middle" x="163.6" y="-478.9" font-family="Times,serif" font-size="14.00">fastp</text>
</g>
<!-- p0&#45;&gt;p1 -->
<g id="edge1" class="edge">
<title>p0&#45;&gt;p1</title>
<path fill="none" stroke="black" d="M163.6,-551.52C163.6,-544.85 163.6,-526.9 163.6,-511.13"/>
<polygon fill="black" stroke="black" points="167.1,-510.73 163.6,-500.73 160.1,-510.73 167.1,-510.73"/>
<text text-anchor="middle" x="183.6" y="-522.4" font-family="Times,serif" font-size="14.00">reads</text>
</g>
<!-- p2 -->
<g id="node3" class="node">
<title>p2</title>
<ellipse fill="none" stroke="black" cx="122.6" cy="-409.6" rx="53.89" ry="18"/>
<text text-anchor="middle" x="122.6" y="-405.9" font-family="Times,serif" font-size="14.00">assembly</text>
</g>
<!-- p1&#45;&gt;p2 -->
<g id="edge2" class="edge">
<title>p1&#45;&gt;p2</title>
<path fill="none" stroke="black" d="M154.09,-465.13C149.14,-456.56 142.98,-445.9 137.43,-436.27"/>
<polygon fill="black" stroke="black" points="140.37,-434.38 132.34,-427.47 134.31,-437.88 140.37,-434.38"/>
</g>
<!-- p8 -->
<g id="node4" class="node">
<title>p8</title>
<ellipse fill="none" stroke="black" cx="172.6" cy="-161.1" rx="3.5" ry="3.5"/>
<text text-anchor="middle" x="155.6" y="-168.4" font-family="Times,serif" font-size="14.00">mix</text>
</g>
<!-- p1&#45;&gt;p8 -->
<g id="edge3" class="edge">
<title>p1&#45;&gt;p8</title>
<path fill="none" stroke="black" d="M178.87,-466.14C190.52,-452.66 204.6,-431.95 204.6,-410.6 204.6,-410.6 204.6,-410.6 204.6,-218.6 204.6,-199.96 191.25,-181.82 181.79,-171.32"/>
<polygon fill="black" stroke="black" points="184.18,-168.75 174.7,-164.02 179.16,-173.63 184.18,-168.75"/>
</g>
<!-- p3 -->
<g id="node5" class="node">
<title>p3</title>
<ellipse fill="none" stroke="black" cx="76.6" cy="-336.6" rx="42.49" ry="18"/>
<text text-anchor="middle" x="76.6" y="-332.9" font-family="Times,serif" font-size="14.00">prokka</text>
</g>
<!-- p2&#45;&gt;p3 -->
<g id="edge4" class="edge">
<title>p2&#45;&gt;p3</title>
<path fill="none" stroke="black" d="M111.7,-391.77C106.08,-383.11 99.13,-372.37 92.89,-362.74"/>
<polygon fill="black" stroke="black" points="95.8,-360.79 87.42,-354.31 89.92,-364.6 95.8,-360.79"/>
</g>
<!-- p5 -->
<g id="node7" class="node">
<title>p5</title>
<ellipse fill="none" stroke="black" cx="140.6" cy="-336.6" rx="3.5" ry="3.5"/>
<text text-anchor="middle" x="152.6" y="-343.9" font-family="Times,serif" font-size="14.00">map</text>
</g>
<!-- p2&#45;&gt;p5 -->
<g id="edge6" class="edge">
<title>p2&#45;&gt;p5</title>
<path fill="none" stroke="black" d="M126.96,-391.41C130.2,-378.63 134.54,-361.5 137.45,-350.03"/>
<polygon fill="black" stroke="black" points="140.86,-350.83 139.92,-340.28 134.07,-349.11 140.86,-350.83"/>
</g>
<!-- p9 -->
<g id="node10" class="node">
<title>p9</title>
<ellipse fill="none" stroke="black" cx="172.6" cy="-117.1" rx="3.5" ry="3.5"/>
<text text-anchor="middle" x="145.6" y="-124.4" font-family="Times,serif" font-size="14.00">collect</text>
</g>
<!-- p8&#45;&gt;p9 -->
<g id="edge10" class="edge">
<title>p8&#45;&gt;p9</title>
<path fill="none" stroke="black" d="M172.6,-157.34C172.6,-152.07 172.6,-140.23 172.6,-130.92"/>
<polygon fill="black" stroke="black" points="176.1,-130.92 172.6,-120.92 169.1,-130.92 176.1,-130.92"/>
</g>
<!-- p4 -->
<g id="node6" class="node">
<title>p4</title>
<ellipse fill="black" stroke="black" cx="76.6" cy="-278.1" rx="1.8" ry="1.8"/>
</g>
<!-- p3&#45;&gt;p4 -->
<g id="edge5" class="edge">
<title>p3&#45;&gt;p4</title>
<path fill="none" stroke="black" d="M76.6,-318.34C76.6,-309.25 76.6,-298.37 76.6,-290.37"/>
<polygon fill="black" stroke="black" points="80.1,-290.1 76.6,-280.1 73.1,-290.1 80.1,-290.1"/>
</g>
<!-- p6 -->
<g id="node8" class="node">
<title>p6</title>
<ellipse fill="none" stroke="black" cx="140.6" cy="-278.1" rx="3.5" ry="3.5"/>
<text text-anchor="middle" x="113.6" y="-285.4" font-family="Times,serif" font-size="14.00">collect</text>
</g>
<!-- p5&#45;&gt;p6 -->
<g id="edge7" class="edge">
<title>p5&#45;&gt;p6</title>
<path fill="none" stroke="black" d="M140.6,-332.87C140.6,-325.59 140.6,-305.31 140.6,-291.85"/>
<polygon fill="black" stroke="black" points="144.1,-291.67 140.6,-281.67 137.1,-291.67 144.1,-291.67"/>
</g>
<!-- p7 -->
<g id="node9" class="node">
<title>p7</title>
<ellipse fill="none" stroke="black" cx="140.6" cy="-219.6" rx="36.29" ry="18"/>
<text text-anchor="middle" x="140.6" y="-215.9" font-family="Times,serif" font-size="14.00">quast</text>
</g>
<!-- p6&#45;&gt;p7 -->
<g id="edge8" class="edge">
<title>p6&#45;&gt;p7</title>
<path fill="none" stroke="black" d="M140.6,-274.37C140.6,-269.43 140.6,-258.5 140.6,-247.77"/>
<polygon fill="black" stroke="black" points="144.1,-247.75 140.6,-237.75 137.1,-247.75 144.1,-247.75"/>
</g>
<!-- p7&#45;&gt;p8 -->
<g id="edge9" class="edge">
<title>p7&#45;&gt;p8</title>
<path fill="none" stroke="black" d="M150.03,-201.95C155.2,-192.82 161.48,-181.74 166.1,-173.58"/>
<polygon fill="black" stroke="black" points="169.23,-175.15 171.12,-164.72 163.14,-171.7 169.23,-175.15"/>
</g>
<!-- p10 -->
<g id="node11" class="node">
<title>p10</title>
<ellipse fill="none" stroke="black" cx="172.6" cy="-58.6" rx="46.29" ry="18"/>
<text text-anchor="middle" x="172.6" y="-54.9" font-family="Times,serif" font-size="14.00">multiqc</text>
</g>
<!-- p9&#45;&gt;p10 -->
<g id="edge11" class="edge">
<title>p9&#45;&gt;p10</title>
<path fill="none" stroke="black" d="M172.6,-113.37C172.6,-108.43 172.6,-97.5 172.6,-86.77"/>
<polygon fill="black" stroke="black" points="176.1,-86.75 172.6,-76.75 169.1,-86.75 176.1,-86.75"/>
</g>
<!-- p11 -->
<g id="node12" class="node">
<title>p11</title>
<ellipse fill="black" stroke="black" cx="172.6" cy="-1.8" rx="1.8" ry="1.8"/>
</g>
<!-- p10&#45;&gt;p11 -->
<g id="edge12" class="edge">
<title>p10&#45;&gt;p11</title>
<path fill="none" stroke="black" d="M172.6,-40.56C172.6,-31.87 172.6,-21.56 172.6,-13.9"/>
<polygon fill="black" stroke="black" points="176.1,-13.76 172.6,-3.76 169.1,-13.76 176.1,-13.76"/>
</g>
</g>
</svg>
